<?xml version="1.0" encoding="UTF-8"?>
<svg xmlns="http://www.w3.org/2000/svg" width="980" height="520" viewBox="0 0 980 520" role="img" aria-label="PLCY logical architecture — SaaS control plane, customer-hosted data plane, and model access. Mirrors the topology above at the product level." font-family="ui-sans-serif, system-ui, sans-serif"><defs><marker id="arrow" markerWidth="9" markerHeight="9" refX="7" refY="3" orient="auto" markerUnits="strokeWidth"><path d="M0,0 L7,3 L0,6 Z" fill="#94a3b8"></path></marker><marker id="arrowb" markerWidth="9" markerHeight="9" refX="7" refY="3" orient="auto" markerUnits="strokeWidth"><path d="M0,0 L7,3 L0,6 Z" fill="#3b82f6"></path></marker></defs><g><rect x="20" y="150" width="150" height="46" rx="8" fill="#eff6ff" stroke="#93c5fd" stroke-width="1.2"></rect><text x="95" y="170" text-anchor="middle" font-size="11.5" font-weight="600" fill="#0f172a">PLCY team</text><text x="95" y="185" text-anchor="middle" font-size="10" fill="#64748b">Admin Console</text></g><g><rect x="20" y="300" width="150" height="46" rx="8" fill="#eff6ff" stroke="#93c5fd" stroke-width="1.2"></rect><text x="95" y="327" text-anchor="middle" font-size="11.5" font-weight="600" fill="#0f172a">Customer admins</text></g><g><rect x="215" y="40" width="300" height="440" rx="12" fill="#f8fafc" stroke="#94a3b8" stroke-width="1.2"></rect><rect x="215" y="40" width="300" height="30" rx="12" fill="#2563eb"></rect><rect x="215" y="56" width="300" height="14" fill="#2563eb"></rect><text x="365" y="60" text-anchor="middle" font-size="12.5" font-weight="700" fill="#fff">PLCY SaaS · Control Plane</text></g><g><rect x="235" y="84" width="260" height="46" rx="8" fill="#faf5ff" stroke="#c4b5fd" stroke-width="1.2"></rect><text x="365" y="104" text-anchor="middle" font-size="11.5" font-weight="600" fill="#0f172a">Admin Console</text><text x="365" y="119" text-anchor="middle" font-size="10" fill="#64748b">this repo · React SPA</text></g><g><rect x="235" y="146" width="260" height="46" rx="8" fill="#ffffff" stroke="#e2e8f0" stroke-width="1.2"></rect><text x="365" y="166" text-anchor="middle" font-size="11.5" font-weight="600" fill="#0f172a">Control-plane API</text><text x="365" y="181" text-anchor="middle" font-size="10" fill="#64748b">planned · Go</text></g><g><rect x="235" y="208" width="260" height="44" rx="8" fill="#ffffff" stroke="#e2e8f0" stroke-width="1.2"></rect><text x="365" y="227" text-anchor="middle" font-size="11.5" font-weight="600" fill="#0f172a">Policy &amp; governance engine</text><text x="365" y="242" text-anchor="middle" font-size="10" fill="#64748b">evidence</text></g><g><rect x="235" y="266" width="260" height="44" rx="8" fill="#ffffff" stroke="#e2e8f0" stroke-width="1.2"></rect><text x="365" y="285" text-anchor="middle" font-size="11.5" font-weight="600" fill="#0f172a">Billing · Stripe</text><text x="365" y="300" text-anchor="middle" font-size="10" fill="#64748b">pricing catalog</text></g><g><rect x="235" y="324" width="260" height="44" rx="8" fill="#ffffff" stroke="#e2e8f0" stroke-width="1.2"></rect><text x="365" y="350" text-anchor="middle" font-size="11.5" font-weight="600" fill="#0f172a">Audit · compliance reporting</text></g><g><rect x="565" y="40" width="270" height="300" rx="12" fill="#f8fafc" stroke="#94a3b8" stroke-width="1.2"></rect><rect x="565" y="40" width="270" height="30" rx="12" fill="#334155"></rect><rect x="565" y="56" width="270" height="14" fill="#334155"></rect><text x="700" y="60" text-anchor="middle" font-size="12.5" font-weight="700" fill="#fff">Customer environment</text></g><text x="700" y="86" text-anchor="middle" font-size="9.5" fill="#64748b">Cloud · VPC · Sovereign · Air-gapped</text><g><rect x="585" y="100" width="230" height="60" rx="8" fill="#f0fdf4" stroke="#86efac" stroke-width="1.2"></rect><text x="700" y="127" text-anchor="middle" font-size="11.5" font-weight="600" fill="#0f172a">Open-source data plane</text><text x="700" y="142" text-anchor="middle" font-size="10" fill="#64748b">real-time enforcement</text></g><g><rect x="585" y="180" width="230" height="52" rx="8" fill="#ffffff" stroke="#e2e8f0" stroke-width="1.2"></rect><text x="700" y="203" text-anchor="middle" font-size="11.5" font-weight="600" fill="#0f172a">Customer AI apps</text><text x="700" y="218" text-anchor="middle" font-size="10" fill="#64748b">agents · workflows</text></g><g><rect x="565" y="368" width="270" height="112" rx="12" fill="#f8fafc" stroke="#94a3b8" stroke-width="1.2"></rect><rect x="565" y="368" width="270" height="30" rx="12" fill="#64748b"></rect><rect x="565" y="384" width="270" height="14" fill="#64748b"></rect><text x="700" y="388" text-anchor="middle" font-size="12.5" font-weight="700" fill="#fff">Model access</text></g><g><rect x="585" y="404" width="110" height="60" rx="8" fill="#fff7ed" stroke="#fdba74" stroke-width="1.2"></rect><text x="640" y="431" text-anchor="middle" font-size="11.5" font-weight="600" fill="#0f172a">BYOK</text><text x="640" y="446" text-anchor="middle" font-size="10" fill="#64748b">provider / Bedrock</text></g><g><rect x="705" y="404" width="110" height="60" rx="8" fill="#fff7ed" stroke="#fdba74" stroke-width="1.2"></rect><text x="760" y="431" text-anchor="middle" font-size="11.5" font-weight="600" fill="#0f172a">PLCY-managed</text><text x="760" y="446" text-anchor="middle" font-size="10" fill="#64748b">metered credits</text></g><g><path d="M170,173 L235,107" fill="none" stroke="#94a3b8" stroke-width="1.5" marker-end="url(#arrow)"></path></g><g><path d="M170,323 L215,169" fill="none" stroke="#94a3b8" stroke-width="1.5" marker-end="url(#arrow)"></path></g><g><path d="M365,130 L365,146" fill="none" stroke="#94a3b8" stroke-width="1.5" marker-end="url(#arrow)"></path></g><g><path d="M365,192 L365,208" fill="none" stroke="#94a3b8" stroke-width="1.5" marker-end="url(#arrow)"></path></g><g><path d="M495,230 L585,130" fill="none" stroke="#3b82f6" stroke-width="1.5" marker-end="url(#arrowb)"></path><text x="548" y="168" text-anchor="middle" font-size="10" font-weight="600" fill="#2563eb">policies / config</text></g><g><path d="M585,150 L515,240" fill="none" stroke="#94a3b8" stroke-width="1.5" stroke-dasharray="5 4" marker-end="url(#arrow)"></path><text x="548" y="214" text-anchor="middle" font-size="10" font-weight="600" fill="#64748b">telemetry</text></g><g><path d="M700,160 L700,180" fill="none" stroke="#94a3b8" stroke-width="1.5" marker-end="url(#arrow)"></path><text x="730" y="174" text-anchor="middle" font-size="10" font-weight="600" fill="#64748b">enforced</text></g><g><path d="M640,232 L640,404" fill="none" stroke="#3b82f6" stroke-width="1.5" marker-end="url(#arrowb)"></path></g><g><path d="M760,232 L760,404" fill="none" stroke="#3b82f6" stroke-width="1.5" marker-end="url(#arrowb)"></path></g></svg>
