<?xml version="1.0" encoding="UTF-8"?>
<svg xmlns="http://www.w3.org/2000/svg" width="980" height="620" viewBox="0 0 980 620" role="img" aria-label="AWS network &amp; deployment topology — the PLCY data plane inside a customer VPC. Labels are illustrative; adjust to your environment." font-family="ui-sans-serif, system-ui, sans-serif"><defs><marker id="arrow" markerWidth="9" markerHeight="9" refX="7" refY="3" orient="auto" markerUnits="strokeWidth"><path d="M0,0 L7,3 L0,6 Z" fill="#94a3b8"></path></marker><marker id="arrowb" markerWidth="9" markerHeight="9" refX="7" refY="3" orient="auto" markerUnits="strokeWidth"><path d="M0,0 L7,3 L0,6 Z" fill="#3b82f6"></path></marker></defs><circle cx="40" cy="300" r="26" fill="#f1f5f9" stroke="#94a3b8" stroke-width="1.2"></circle><text x="40" y="304" text-anchor="middle" font-size="11" font-weight="600" fill="#0f172a">User</text><g><rect x="95" y="24" width="610" height="580" rx="12" fill="#f8fafc" stroke="#94a3b8" stroke-width="1.2"></rect><rect x="95" y="24" width="610" height="30" rx="12" fill="#334155"></rect><rect x="95" y="40" width="610" height="14" fill="#334155"></rect><text x="400" y="44" text-anchor="middle" font-size="12.5" font-weight="700" fill="#fff">Amazon VPC · Virtual Private Cloud</text></g><g><rect x="115" y="72" width="230" height="82" rx="12" fill="#ffffff" stroke="#94a3b8" stroke-width="1.2"></rect><rect x="115" y="72" width="230" height="30" rx="12" fill="#64748b"></rect><rect x="115" y="88" width="230" height="14" fill="#64748b"></rect><text x="230" y="92" text-anchor="middle" font-size="12.5" font-weight="700" fill="#fff">Load Balancer</text></g><g><rect x="127" y="110" width="206" height="36" rx="8" fill="#eff6ff" stroke="#93c5fd" stroke-width="1.2"></rect><text x="230" y="125" text-anchor="middle" font-size="11.5" font-weight="600" fill="#0f172a">AWS Application Load Balancer</text><text x="230" y="140" text-anchor="middle" font-size="10" fill="#64748b">ALB</text></g><g><rect x="115" y="176" width="230" height="120" rx="8" fill="#ffffff" stroke="#e2e8f0" stroke-width="1.2"></rect><text x="230" y="194" text-anchor="middle" font-size="11" font-weight="700" fill="#0f172a">Ingress · ALB Listener Rules</text><text x="127" y="214" font-size="10" fill="#64748b">frontend  →  /</text><text x="127" y="230" font-size="10" fill="#64748b">backend  →  /api/* · /vault/* · /swagger/*</text><text x="127" y="246" font-size="10" fill="#64748b">socket  →  /socket/</text><text x="127" y="270" font-size="9.5" font-style="italic" fill="#94a3b8">Managed by AWS ALB Controller</text></g><g><rect x="115" y="316" width="150" height="34" rx="8" fill="#ffffff" stroke="#e2e8f0" stroke-width="1.2"></rect><text x="190" y="337" text-anchor="middle" font-size="11.5" font-weight="600" fill="#0f172a">AWS NAT Gateway</text></g><g><path d="M117,387 a43,7 0 0,1 86,0 v44 a43,7 0 0,1 -86,0 Z" fill="#eef2ff" stroke="#818cf8" stroke-width="1.2"></path><ellipse cx="160" cy="387" rx="43" ry="7" fill="#e0e7ff" stroke="#818cf8" stroke-width="1.2"></ellipse><text x="160" y="452" text-anchor="middle" font-size="9.5" fill="#64748b">Amazon RDS</text><text x="160" y="464" text-anchor="middle" font-size="9.5" fill="#64748b">(PostgreSQL)</text></g><g><path d="M232,387 a43,7 0 0,1 86,0 v44 a43,7 0 0,1 -86,0 Z" fill="#eef2ff" stroke="#818cf8" stroke-width="1.2"></path><ellipse cx="275" cy="387" rx="43" ry="7" fill="#e0e7ff" stroke="#818cf8" stroke-width="1.2"></ellipse><text x="275" y="452" text-anchor="middle" font-size="9.5" fill="#64748b">Amazon ElastiCache</text><text x="275" y="464" text-anchor="middle" font-size="9.5" fill="#64748b">(Redis)</text></g><g><rect x="115" y="500" width="215" height="72" rx="8" fill="#f0fdf4" stroke="#86efac" stroke-width="1.2"></rect><text x="222.5" y="533" text-anchor="middle" font-size="11.5" font-weight="600" fill="#0f172a">Amazon S3 · Multi-Region</text><text x="222.5" y="548" text-anchor="middle" font-size="10" fill="#64748b">Data Lake · Backups · Media</text></g><g><rect x="380" y="72" width="305" height="380" rx="12" fill="#f8fafc" stroke="#94a3b8" stroke-width="1.2"></rect><rect x="380" y="72" width="305" height="30" rx="12" fill="#2563eb"></rect><rect x="380" y="88" width="305" height="14" fill="#2563eb"></rect><text x="532.5" y="92" text-anchor="middle" font-size="12.5" font-weight="700" fill="#fff">Amazon EKS Cluster · PLCY App</text></g><g><rect x="398" y="118" width="270" height="150" rx="10" fill="#faf5ff" stroke="#c4b5fd" stroke-width="1.2"></rect><text x="533" y="136" text-anchor="middle" font-size="11" font-weight="700" fill="#6d28d9">Kubernetes Pod</text><g><rect x="410" y="148" width="118" height="40" rx="8" fill="#ffffff" stroke="#ddd6fe" stroke-width="1.2"></rect><text x="469" y="172" text-anchor="middle" font-size="11.5" font-weight="600" fill="#0f172a">PLCY Gateway</text></g><g><rect x="538" y="148" width="118" height="40" rx="8" fill="#ffffff" stroke="#ddd6fe" stroke-width="1.2"></rect><text x="597" y="172" text-anchor="middle" font-size="11.5" font-weight="600" fill="#0f172a">OPA Sidecar</text></g><g><rect x="410" y="196" width="118" height="44" rx="8" fill="#ffffff" stroke="#ddd6fe" stroke-width="1.2"></rect><text x="469" y="215" text-anchor="middle" font-size="11.5" font-weight="600" fill="#0f172a">OTel Collector</text><text x="469" y="230" text-anchor="middle" font-size="10" fill="#64748b">sidecar</text></g><g><rect x="538" y="196" width="118" height="44" rx="8" fill="#ffffff" stroke="#ddd6fe" stroke-width="1.2"></rect><text x="597" y="215" text-anchor="middle" font-size="11.5" font-weight="600" fill="#0f172a">OPA Gateway</text><text x="597" y="230" text-anchor="middle" font-size="10" fill="#64748b">service mesh</text></g></g><g><rect x="398" y="300" width="90" height="50" rx="8" fill="#ffffff" stroke="#e2e8f0" stroke-width="1.2"></rect><text x="443" y="322" text-anchor="middle" font-size="11.5" font-weight="600" fill="#0f172a">Backend</text><text x="443" y="337" text-anchor="middle" font-size="10" fill="#64748b">microservices</text></g><g><rect x="493" y="300" width="86" height="50" rx="8" fill="#ffffff" stroke="#e2e8f0" stroke-width="1.2"></rect><text x="536" y="322" text-anchor="middle" font-size="11.5" font-weight="600" fill="#0f172a">Node.js</text><text x="536" y="337" text-anchor="middle" font-size="10" fill="#64748b">frontend</text></g><g><rect x="584" y="300" width="84" height="50" rx="8" fill="#ffffff" stroke="#e2e8f0" stroke-width="1.2"></rect><text x="626" y="322" text-anchor="middle" font-size="11.5" font-weight="600" fill="#0f172a">Background</text><text x="626" y="337" text-anchor="middle" font-size="10" fill="#64748b">tasks</text></g><text x="533" y="378" text-anchor="middle" font-size="9.5" font-style="italic" fill="#64748b">All application pods include OPA &amp; OTel sidecars</text><rect x="398" y="392" width="270" height="42" rx="8" fill="#f1f5f9" stroke="#e2e8f0" stroke-width="1"></rect><text x="533" y="417" text-anchor="middle" font-size="10" fill="#64748b">Service mesh · mTLS between pods</text><g><rect x="740" y="118" width="222" height="212" rx="12" fill="#f8fafc" stroke="#94a3b8" stroke-width="1.2"></rect><rect x="740" y="118" width="222" height="30" rx="12" fill="#0f172a"></rect><rect x="740" y="134" width="222" height="14" fill="#0f172a"></rect><text x="851" y="138" text-anchor="middle" font-size="12.5" font-weight="700" fill="#fff">AWS Observability Backend</text></g><g><rect x="756" y="156" width="190" height="42" rx="8" fill="#ffffff" stroke="#e2e8f0" stroke-width="1.2"></rect><text x="851" y="174" text-anchor="middle" font-size="11.5" font-weight="600" fill="#0f172a">Amazon CloudWatch</text><text x="851" y="189" text-anchor="middle" font-size="10" fill="#64748b">Logs · Metrics</text></g><g><rect x="756" y="206" width="190" height="38" rx="8" fill="#ffffff" stroke="#e2e8f0" stroke-width="1.2"></rect><text x="851" y="229" text-anchor="middle" font-size="11.5" font-weight="600" fill="#0f172a">AWS X-Ray</text></g><g><rect x="756" y="252" width="190" height="48" rx="8" fill="#ffffff" stroke="#e2e8f0" stroke-width="1.2"></rect><text x="851" y="273" text-anchor="middle" font-size="11.5" font-weight="600" fill="#0f172a">Amazon Managed</text><text x="851" y="288" text-anchor="middle" font-size="10" fill="#64748b">Prometheus / Grafana</text></g><g><path d="M66,296 L127,128" fill="none" stroke="#94a3b8" stroke-width="1.5" marker-end="url(#arrow)"></path><text x="92" y="198" text-anchor="middle" font-size="10" font-weight="600" fill="#64748b">HTTPS</text></g><g><path d="M230,154 L230,176" fill="none" stroke="#94a3b8" stroke-width="1.5" marker-end="url(#arrow)"></path></g><g><path d="M345,224 L398,200" fill="none" stroke="#3b82f6" stroke-width="1.5" marker-end="url(#arrowb)"></path><text x="372" y="205" text-anchor="middle" font-size="10" font-weight="600" fill="#2563eb">AI request</text></g><g><path d="M230,296 L230,316" fill="none" stroke="#94a3b8" stroke-width="1.5" marker-end="url(#arrow)"></path></g><g><path d="M190,350 L165,373" fill="none" stroke="#94a3b8" stroke-width="1.5" marker-end="url(#arrow)"></path></g><g><path d="M240,350 L270,373" fill="none" stroke="#94a3b8" stroke-width="1.5" marker-end="url(#arrow)"></path></g><g><path d="M210,438 L210,500" fill="none" stroke="#94a3b8" stroke-width="1.5" marker-end="url(#arrow)"></path></g><g><path d="M668,218 L740,224" fill="none" stroke="#3b82f6" stroke-width="1.5" marker-end="url(#arrowb)"></path><text x="704" y="214" text-anchor="middle" font-size="10" font-weight="600" fill="#2563eb">Trace export</text></g><g><path d="M756,300 L500,300 L500,350" fill="none" stroke="#94a3b8" stroke-width="1.5" stroke-dasharray="5 4" marker-end="url(#arrow)"></path><text x="640" y="294" text-anchor="middle" font-size="10" font-weight="600" fill="#64748b">metrics scrape</text></g></svg>
